<svg width="25" height="24" viewBox="0 0 25 24" fill="none" xmlns="http://www.w3.org/2000/svg">
<circle cx="13" cy="12" r="12" fill="#C4C4C4"/>
<path d="M18.4144 15.9312C18.1197 15.2331 17.6919 14.5989 17.155 14.0641C16.6198 13.5277 15.9857 13.1 15.2878 12.8047C15.2816 12.8016 15.2753 12.8 15.2691 12.7969C16.2425 12.0938 16.8753 10.9484 16.8753 9.65625C16.8753 7.51562 15.141 5.78125 13.0003 5.78125C10.8597 5.78125 9.12534 7.51562 9.12534 9.65625C9.12534 10.9484 9.75816 12.0937 10.7316 12.7984C10.7253 12.8016 10.7191 12.8031 10.7128 12.8062C10.0128 13.1016 9.38472 13.525 8.84566 14.0656C8.30927 14.6009 7.8816 15.235 7.58628 15.9328C7.29616 16.616 7.13969 17.3485 7.12534 18.0906C7.12493 18.1073 7.12785 18.1239 7.13395 18.1394C7.14004 18.1549 7.14918 18.1691 7.16083 18.181C7.17248 18.193 7.1864 18.2025 7.20178 18.2089C7.21715 18.2154 7.23366 18.2188 7.25034 18.2188H8.18784C8.25659 18.2188 8.31128 18.1641 8.31284 18.0969C8.34409 16.8906 8.82847 15.7609 9.68472 14.9047C10.5707 14.0188 11.7472 13.5312 13.0003 13.5312C14.2535 13.5312 15.43 14.0188 16.316 14.9047C17.1722 15.7609 17.6566 16.8906 17.6878 18.0969C17.6894 18.1656 17.7441 18.2188 17.8128 18.2188H18.7503C18.767 18.2188 18.7835 18.2154 18.7989 18.2089C18.8143 18.2025 18.8282 18.193 18.8399 18.181C18.8515 18.1691 18.8606 18.1549 18.8667 18.1394C18.8728 18.1239 18.8758 18.1073 18.8753 18.0906C18.8597 17.3438 18.705 16.6172 18.4144 15.9312ZM13.0003 12.3438C12.2832 12.3438 11.6082 12.0641 11.1003 11.5563C10.5925 11.0484 10.3128 10.3734 10.3128 9.65625C10.3128 8.93906 10.5925 8.26406 11.1003 7.75625C11.6082 7.24844 12.2832 6.96875 13.0003 6.96875C13.7175 6.96875 14.3925 7.24844 14.9003 7.75625C15.4082 8.26406 15.6878 8.93906 15.6878 9.65625C15.6878 10.3734 15.4082 11.0484 14.9003 11.5563C14.3925 12.0641 13.7175 12.3438 13.0003 12.3438Z" fill="#666666"/>
</svg>
