<svg width="25" height="27" viewBox="0 0 25 27" fill="none" xmlns="http://www.w3.org/2000/svg">
<path d="M9.75496 10.5255C11.0715 9.08994 11.0074 6.86763 9.61041 5.51028C8.21338 4.15294 5.99015 4.15294 4.59312 5.51028C3.19609 6.86763 3.13204 9.08994 4.44856 10.5255C3.02192 11.4359 2.15596 13.0091 2.14996 14.7015V15.1515C2.15046 15.7304 2.6196 16.1995 3.19846 16.2H11.0015C11.5803 16.1995 12.0495 15.7304 12.05 15.1515V14.7015C12.0529 13.0077 11.1864 11.431 9.75496 10.5255ZM7.09996 5.39999C8.59113 5.39999 9.79997 6.60882 9.79997 8.09999C9.79997 9.59116 8.59113 10.8 7.09996 10.8C5.6088 10.8 4.39996 9.59116 4.39996 8.09999C4.40145 6.60944 5.60941 5.40148 7.09996 5.39999ZM11.15 15.1515C11.149 15.2331 11.0831 15.299 11.0015 15.3H9.79997V13.95C9.79997 13.7015 9.59849 13.5 9.34997 13.5C9.10144 13.5 8.89996 13.7015 8.89996 13.95V15.3H5.29996V13.95C5.29996 13.7015 5.09849 13.5 4.84996 13.5C4.60144 13.5 4.39996 13.7015 4.39996 13.95V15.3H3.19846C3.11686 15.299 3.05094 15.2331 3.04996 15.1515V14.7015C3.05665 13.2139 3.87572 11.8488 5.18521 11.1429C6.35657 11.8875 7.85338 11.8856 9.02282 11.1379C10.3328 11.8446 11.1496 13.213 11.15 14.7015V15.1515Z" fill="#BAABAB"/>
<path d="M17.9 4.50001C16.4729 4.4969 15.1792 5.3385 14.6037 6.64438C14.0282 7.95026 14.2799 9.47295 15.245 10.5242C13.8193 11.4357 12.9548 13.0094 12.95 14.7015V15.1515C12.9505 15.7304 13.4196 16.1995 13.9985 16.2H21.8015C22.3804 16.1995 22.8495 15.7304 22.85 15.1515V14.7015C22.853 13.0077 21.9864 11.431 20.555 10.5255C21.5206 9.47425 21.7726 7.95118 21.1971 6.64492C20.6215 5.33866 19.3275 4.49682 17.9 4.50001ZM17.9 5.40001C19.3912 5.40001 20.6 6.60884 20.6 8.10001C20.6 9.59118 19.3912 10.8 17.9 10.8C16.4088 10.8 15.2 9.59118 15.2 8.10001C15.2015 6.60946 16.4095 5.4015 17.9 5.40001ZM21.95 14.7015V15.1515C21.949 15.2331 21.8831 15.299 21.8015 15.3H20.6V13.95C20.6 13.7015 20.3985 13.5 20.15 13.5C19.9015 13.5 19.7 13.7015 19.7 13.95V15.3H16.1V13.95C16.1 13.7015 15.8985 13.5 15.65 13.5C15.4015 13.5 15.2 13.7015 15.2 13.95V15.3H13.9985C13.9169 15.299 13.851 15.2331 13.85 15.1515V14.7015C13.8567 13.2139 14.6758 11.8488 15.9853 11.1429C17.1566 11.8875 18.6534 11.8856 19.8229 11.138C21.1329 11.8447 21.9497 13.213 21.95 14.7015Z" fill="#BAABAB"/>
<path d="M12.5 1.28285e-06C9.20859 -0.0165429 6.05103 1.30165 3.74839 3.65355C1.51283 5.90935 0.286744 8.97473 0.349987 12.15C0.349987 15.4215 1.47004 17.9739 3.67999 19.7374C5.66947 21.2582 8.0529 22.1774 10.5483 22.3861C10.245 23.548 9.28519 24.5313 8.27359 25.4259C7.99427 25.673 7.89625 26.0667 8.02712 26.4159C8.15799 26.7651 8.49064 26.9974 8.86354 27C8.88649 27 8.90854 27 8.93329 26.9973C11.555 26.8033 24.6396 25.1712 24.65 12.1585C24.7148 8.98048 23.4886 5.91186 21.2516 3.65355C18.949 1.30165 15.7914 -0.0165429 12.5 1.28285e-06ZM8.86984 26.1C10.1456 24.9714 11.3502 23.6974 11.5248 22.0279V22.0225C11.5883 21.347 11.4849 20.6661 11.2238 20.0398C11.128 19.8145 10.8695 19.7071 10.6422 19.7982C10.4149 19.8894 10.3022 20.1455 10.3886 20.3746C10.5347 20.7302 10.6202 21.1077 10.6415 21.4915C8.31699 21.3011 6.09573 20.4486 4.24069 19.035C2.25619 17.4501 1.24999 15.1339 1.24999 12.1414C1.19018 9.20532 2.32334 6.37039 4.39054 4.28445C6.53327 2.11862 9.45333 0.89991 12.5 0.89991C15.5466 0.89991 18.4667 2.11862 20.6094 4.28445C22.6783 6.37282 23.8115 9.21104 23.75 12.15C23.7405 24.3756 11.3502 25.9164 8.86984 26.1Z" fill="#BAABAB"/>
</svg>
