<svg width="27" height="19" viewBox="0 0 27 19" fill="none" xmlns="http://www.w3.org/2000/svg">
<path d="M19.3162 7.39014L12.731 13.1799C12.7222 13.1876 12.7134 13.1953 12.7057 13.2035C12.4925 13.4156 12.375 13.6984 12.375 14C12.375 14.6202 12.8793 15.125 13.5 15.125C13.7988 15.125 14.0812 15.0086 14.3207 14.769L20.1105 8.18384C20.306 7.96136 20.2951 7.62465 20.0852 7.41482C19.8754 7.20557 19.5403 7.19455 19.3162 7.39014Z" fill="#BAABAB"/>
<path d="M13.5 0.5C6.05565 0.5 0 6.55623 0 14C0 15.3964 0.216422 16.7785 0.641619 18.1089C0.716344 18.3418 0.932766 18.5 1.17777 18.5H25.8223C26.0673 18.5 26.2837 18.3418 26.3584 18.1089C26.7836 16.7785 27 15.3964 27 14C27 6.55623 20.9444 0.5 13.5 0.5ZM24.1875 14.5625H25.836C25.7925 15.5138 25.6653 16.4582 25.4048 17.375H1.59521C1.33471 16.4581 1.20746 15.5138 1.16401 14.5625H2.81248C3.1234 14.5625 3.375 14.3109 3.375 14C3.375 13.6891 3.1234 13.4375 2.81248 13.4375H1.15346C1.23683 11.5961 1.71666 9.85866 2.52181 8.31128L3.96272 9.14348C4.05174 9.19458 4.1484 9.21873 4.24396 9.21873C4.43733 9.21873 4.62739 9.11822 4.73064 8.9375C4.88663 8.66834 4.79435 8.32446 4.52519 8.169L3.08749 7.33865C4.05374 5.83366 5.33408 4.55343 6.83912 3.58723L7.66948 5.02582C7.77273 5.20602 7.96284 5.30705 8.15616 5.30705C8.25177 5.30705 8.34843 5.2829 8.43739 5.2318C8.70655 5.07634 8.79884 4.73246 8.64285 4.4633L7.81086 3.02197C9.35835 2.21671 11.0958 1.73683 12.9374 1.65346V3.31248C12.9374 3.6234 13.189 3.875 13.4999 3.875C13.8109 3.875 14.0625 3.6234 14.0625 3.31248V1.65346C15.9041 1.73683 17.6415 2.21671 19.189 3.02197L18.357 4.4633C18.2011 4.73246 18.2933 5.07634 18.5625 5.2318C18.6515 5.2829 18.7482 5.30705 18.8437 5.30705C19.0371 5.30705 19.2272 5.20596 19.3304 5.02582L20.1608 3.58723C21.6658 4.55343 22.9462 5.83366 23.9124 7.33865L22.4747 8.169C22.2055 8.32446 22.1133 8.66834 22.2693 8.9375C22.3725 9.11822 22.5626 9.21873 22.7559 9.21873C22.8515 9.21873 22.9482 9.19458 23.0372 9.14348L24.4781 8.31128C25.2832 9.85872 25.7631 11.5961 25.8464 13.4375H24.1874C23.8765 13.4375 23.6249 13.6891 23.6249 14C23.625 14.3109 23.8766 14.5625 24.1875 14.5625Z" fill="#BAABAB"/>
</svg>
