<svg width="27" height="27" viewBox="0 0 27 27" fill="none" xmlns="http://www.w3.org/2000/svg">
  <path d="M22.5 0H6.3C5.1993 0 4.28445 0.7956 4.0914 1.8414C3.0456 2.03445 2.25 2.9493 2.25 4.05V24.75C2.25 25.9907 3.25935 27 4.5 27H20.7C21.8007 27 22.7155 26.2044 22.9086 25.1586C23.9544 24.9655 24.75 24.0507 24.75 22.95V2.25C24.75 1.00935 23.7407 0 22.5 0ZM22.05 24.75C22.05 25.4943 21.4443 26.1 20.7 26.1H4.5C3.7557 26.1 3.15 25.4943 3.15 24.75V4.05C3.15 3.3057 3.7557 2.7 4.5 2.7H18V6.3C18 6.54885 18.2011 6.75 18.45 6.75H22.05V24.75ZM18.9 5.85V3.3363L21.4137 5.85H18.9ZM23.85 22.95C23.85 23.5359 23.4725 24.0309 22.95 24.2172V6.3C22.95 6.17535 22.8992 6.06285 22.8177 5.9814L18.769 1.93275C18.6871 1.85085 18.5746 1.8 18.45 1.8H5.0328C5.2191 1.27755 5.7141 0.9 6.3 0.9H22.5C23.2443 0.9 23.85 1.5057 23.85 2.25V22.95Z" fill="#BAABAB"/>
  <path d="M12.6 4.05C11.3594 4.05 10.35 5.05935 10.35 6.3C10.35 7.54065 11.3594 8.55 12.6 8.55C13.8407 8.55 14.85 7.54065 14.85 6.3C14.85 5.05935 13.8407 4.05 12.6 4.05ZM12.6 7.65C11.8557 7.65 11.25 7.0443 11.25 6.3C11.25 5.5557 11.8557 4.95 12.6 4.95C13.3443 4.95 13.95 5.5557 13.95 6.3C13.95 7.0443 13.3443 7.65 12.6 7.65Z" fill="#BAABAB"/>
  <path d="M9 9.89999H4.5V10.8H9V9.89999Z" fill="#BAABAB"/>
  <path d="M11.7 9.89999H10.35V10.8H11.7V9.89999Z" fill="#BAABAB"/>
  <path d="M18 9.89999H13.5V10.8H18V9.89999Z" fill="#BAABAB"/>
  <path d="M20.7 9.89999H19.35V10.8H20.7V9.89999Z" fill="#BAABAB"/>
  <path d="M9 11.7H4.5V12.6H9V11.7Z" fill="#BAABAB"/>
  <path d="M11.7 11.7H10.35V12.6H11.7V11.7Z" fill="#BAABAB"/>
  <path d="M18 11.7H13.5V12.6H18V11.7Z" fill="#BAABAB"/>
  <path d="M20.7 11.7H19.35V12.6H20.7V11.7Z" fill="#BAABAB"/>
  <path d="M9 13.5H4.5V14.4H9V13.5Z" fill="#BAABAB"/>
  <path d="M11.7 13.5H10.35V14.4H11.7V13.5Z" fill="#BAABAB"/>
  <path d="M18 13.5H13.5V14.4H18V13.5Z" fill="#BAABAB"/>
  <path d="M20.7 13.5H19.35V14.4H20.7V13.5Z" fill="#BAABAB"/>
  <path d="M9 15.3H4.5V16.2H9V15.3Z" fill="#BAABAB"/>
  <path d="M11.7 15.3H10.35V16.2H11.7V15.3Z" fill="#BAABAB"/>
  <path d="M18 15.3H13.5V16.2H18V15.3Z" fill="#BAABAB"/>
  <path d="M20.7 15.3H19.35V16.2H20.7V15.3Z" fill="#BAABAB"/>
  <path d="M9 18H4.5V18.9H9V18Z" fill="#BAABAB"/>
  <path d="M11.7 18H10.35V18.9H11.7V18Z" fill="#BAABAB"/>
  <path d="M18 18H13.5V18.9H18V18Z" fill="#BAABAB"/>
  <path d="M20.7 18H19.35V18.9H20.7V18Z" fill="#BAABAB"/>
  <path d="M9 19.8H4.5V20.7H9V19.8Z" fill="#BAABAB"/>
  <path d="M11.7 19.8H10.35V20.7H11.7V19.8Z" fill="#BAABAB"/>
  <path d="M18 19.8H13.5V20.7H18V19.8Z" fill="#BAABAB"/>
  <path d="M20.7 19.8H19.35V20.7H20.7V19.8Z" fill="#BAABAB"/>
  <path d="M9 21.6H4.5V22.5H9V21.6Z" fill="#BAABAB"/>
  <path d="M11.7 21.6H10.35V22.5H11.7V21.6Z" fill="#BAABAB"/>
  <path d="M18 21.6H13.5V22.5H18V21.6Z" fill="#BAABAB"/>
  <path d="M20.7 21.6H19.35V22.5H20.7V21.6Z" fill="#BAABAB"/>
  <path d="M9 23.4H4.5V24.3H9V23.4Z" fill="#BAABAB"/>
  <path d="M11.7 23.4H10.35V24.3H11.7V23.4Z" fill="#BAABAB"/>
  <path d="M18 23.4H13.5V24.3H18V23.4Z" fill="#BAABAB"/>
  <path d="M20.7 23.4H19.35V24.3H20.7V23.4Z" fill="#BAABAB"/>
</svg>
