<svg width="27" height="27" viewBox="0 0 27 27" fill="none" xmlns="http://www.w3.org/2000/svg">
<path d="M25.7591 23.6726H25.3091V11.9391C26.3251 11.2853 27 10.1454 27 8.84999C27 8.78117 26.982 8.71352 26.9479 8.65377L23.8095 3.16159C23.5891 2.77594 23.1762 2.53632 22.732 2.53632H4.26795C3.82377 2.53632 3.41091 2.77589 3.19048 3.16159L0.0521016 8.65377C0.0179824 8.71352 0 8.78123 0 8.84999C0 10.1454 0.674894 11.2853 1.69087 11.9391V23.6726H1.24095C1.02252 23.6726 0.845437 23.8497 0.845437 24.0681C0.845437 24.2866 1.02252 24.4636 1.24095 24.4636H25.7591C25.9775 24.4636 26.1546 24.2866 26.1546 24.0681C26.1546 23.8497 25.9775 23.6726 25.7591 23.6726ZM0.818279 9.2455H2.08622C2.30465 9.2455 2.48173 9.06842 2.48173 8.84999C2.48173 8.63157 2.30465 8.45448 2.08622 8.45448H1.07705L3.8773 3.55404C3.95724 3.41418 4.1069 3.32733 4.26795 3.32733H22.732C22.8931 3.32733 23.0428 3.41418 23.1227 3.55404L25.9229 8.45448H24.9135C24.695 8.45448 24.518 8.63157 24.518 8.84999C24.518 9.06842 24.695 9.2455 24.9135 9.2455H26.1817C25.9883 10.6474 24.7825 11.7306 23.3283 11.7306C21.8742 11.7306 20.669 10.6473 20.4755 9.2455H23.2228C23.4413 9.2455 23.6183 9.06842 23.6183 8.84999C23.6183 8.63157 23.4413 8.45448 23.2228 8.45448H3.77742C3.55899 8.45448 3.38191 8.63157 3.38191 8.84999C3.38191 9.06842 3.55899 9.2455 3.77742 9.2455H6.5244C6.33097 10.6473 5.12573 11.7306 3.67163 11.7306C2.21743 11.7306 1.01166 10.6474 0.818279 9.2455ZM19.6289 9.2455C19.4355 10.6473 18.2302 11.7306 16.7761 11.7306C15.322 11.7306 14.1168 10.6473 13.9234 9.2455H19.6289ZM13.0766 9.2455C12.8832 10.6473 11.678 11.7306 10.2239 11.7306C8.76978 11.7306 7.56454 10.6473 7.37111 9.2455H13.0766ZM22.4044 23.6727H18.1227V22.35H22.4044V23.6727ZM22.4044 21.559H18.1227V14.3182H22.4044V21.559ZM24.5181 23.6727H23.1955V13.9227C23.1955 13.7043 23.0184 13.5272 22.8 13.5272H17.7273C17.5088 13.5272 17.3318 13.7043 17.3318 13.9227V23.6726H2.48189V12.3227C2.8553 12.451 3.25524 12.5216 3.67163 12.5216C5.10047 12.5216 6.34126 11.7013 6.94775 10.5068C7.55425 11.7012 8.79504 12.5216 10.2239 12.5216C11.6527 12.5216 12.8935 11.7013 13.5 10.5068C14.1065 11.7012 15.3473 12.5216 16.7761 12.5216C18.205 12.5216 19.4457 11.7013 20.0522 10.5068C20.6587 11.7012 21.8995 12.5216 23.3284 12.5216C23.7448 12.5216 24.1447 12.451 24.5181 12.3227V23.6727Z" fill="#EEA721"/>
<path d="M15.6136 13.5272H4.20001C3.98159 13.5272 3.8045 13.7043 3.8045 13.9227V21.9545C3.8045 22.173 3.98159 22.3501 4.20001 22.3501H15.6136C15.8321 22.3501 16.0091 22.173 16.0091 21.9545V13.9227C16.0091 13.7043 15.8321 13.5272 15.6136 13.5272ZM15.2181 21.559H4.59552V14.3182H15.2181V21.559Z" fill="#EEA721"/>
</svg>
