<svg width="23" height="29" viewBox="0 0 23 29" fill="none" xmlns="http://www.w3.org/2000/svg">
<path d="M19.2442 11.4948V11.4947C19.4333 12.221 20.0947 12.7587 20.8794 12.7587C21.8111 12.7587 22.569 12.0007 22.569 11.069C22.569 10.1374 21.8111 9.37941 20.8794 9.37941C20.0947 9.37941 19.4333 9.91715 19.2442 10.6434H13.1488C13.1465 10.6331 13.1442 10.6229 13.1417 10.6127L18.42 7.56527C18.7411 7.89084 19.1787 8.06864 19.6256 8.06864C19.9121 8.06864 20.2022 7.99585 20.4676 7.84258C21.2744 7.37672 21.5519 6.34133 21.0861 5.53449C20.6203 4.72765 19.5849 4.45034 18.778 4.91604C18.0985 5.30838 17.7946 6.10475 17.9939 6.82833L12.738 9.86283C12.7277 9.85179 12.7173 9.84085 12.7068 9.83009L13.6419 8.21046C13.7594 8.0069 13.6897 7.74658 13.4862 7.62905C13.2826 7.51147 13.0222 7.58119 12.9047 7.78481L11.9776 9.39062C11.9604 9.38552 11.9432 9.38037 11.9257 9.37584V3.3249C12.652 3.13572 13.1896 2.47433 13.1896 1.68964C13.1896 0.75796 12.4317 0 11.5 0C10.5683 0 9.81032 0.75796 9.81032 1.68964C9.81032 2.47433 10.348 3.13572 11.0743 3.3249V9.37595C11.0569 9.38048 11.0396 9.38564 11.0224 9.39073L7.99647 4.14964C8.53081 3.62266 8.66579 2.78104 8.2735 2.10152C8.04784 1.71065 7.68348 1.43107 7.24757 1.31428C6.8115 1.19738 6.35622 1.25741 5.96546 1.48307C5.57459 1.70872 5.29507 2.07309 5.17822 2.509C5.06137 2.9449 5.12135 3.40023 5.34701 3.7911C5.57261 4.18198 5.93703 4.46156 6.37299 4.57835C6.51856 4.61737 6.66627 4.63663 6.81303 4.63663C6.96403 4.63663 7.1139 4.61584 7.25941 4.57546L10.2932 9.83021C10.2827 9.84097 10.2723 9.8519 10.262 9.86294L5.00615 6.82844C5.20546 6.10492 4.90153 5.30855 4.22202 4.91615C3.41518 4.45028 2.37974 4.72771 1.91393 5.53461C1.44812 6.34145 1.72554 7.37683 2.53238 7.8427C2.79785 7.99597 3.08785 8.06875 3.3744 8.06875C3.82129 8.06875 4.25889 7.89096 4.58004 7.56539L9.85829 10.6129C9.8558 10.6231 9.85348 10.6333 9.85121 10.6436H3.75581C3.56663 9.91726 2.90524 9.37958 2.12055 9.37958C1.18887 9.37958 0.430969 10.1375 0.430969 11.0692C0.430969 12.0009 1.18887 12.7588 2.12055 12.7588C2.90524 12.7588 3.56663 12.2211 3.75581 11.4949H9.88123C9.8827 11.4998 9.88395 11.5049 9.88548 11.5099L4.58049 14.5728C4.05351 14.0384 3.21189 13.9034 2.53232 14.2957C1.72554 14.7615 1.44806 15.797 1.91387 16.6038C2.13952 16.9947 2.50389 17.2742 2.93985 17.3911C3.08542 17.4301 3.23313 17.4493 3.37995 17.4493C3.67266 17.4493 3.9617 17.3725 4.22202 17.2222C4.90153 16.8299 5.20546 16.0335 5.00615 15.31L10.0176 12.4166C10.0065 12.4903 10.0005 12.5651 10.0005 12.6405L10.0004 12.8155L7.25952 17.5629C6.97247 17.4832 6.66831 17.481 6.37305 17.56C5.93709 17.6769 5.57277 17.9564 5.34706 18.3473C5.12141 18.7381 5.06148 19.1935 5.17828 19.6294C5.29512 20.0653 5.57464 20.4297 5.96552 20.6553C6.22584 20.8056 6.51482 20.8824 6.80759 20.8824C6.95435 20.8824 7.10206 20.8631 7.24763 20.8241C7.68359 20.7073 8.0479 20.4278 8.27355 20.0369C8.34164 19.919 8.39437 19.7951 8.43198 19.6677C9.18365 20.6334 9.8059 21.7571 10.2825 23.0116C10.6521 23.9846 11.3541 24.8082 12.2745 25.3563L12.0358 28.5426C12.027 28.6607 12.0678 28.7771 12.1483 28.8639C12.2288 28.9507 12.3419 29 12.4603 29H17.1895C17.3078 29 17.4209 28.9507 17.5014 28.8639C17.582 28.7771 17.6228 28.6607 17.6139 28.5426L17.3759 25.356C18.3774 24.7576 19.13 23.8174 19.4607 22.7392C19.5296 22.5145 19.4034 22.2764 19.1786 22.2075C18.9541 22.1387 18.7159 22.2648 18.6469 22.4895C18.3558 23.4384 17.6588 24.2585 16.7348 24.7395C16.5838 24.818 16.4942 24.979 16.5068 25.1487L16.731 28.1487H12.9191L13.1438 25.1488C13.1565 24.979 13.0669 24.818 12.9158 24.7395C12.0589 24.2936 11.4063 23.5726 11.0783 22.7093C10.5456 21.307 9.83938 20.0546 8.97929 18.9868L8.84437 18.8194C8.67695 18.5215 8.78858 18.2411 8.95222 18.0756C9.11257 17.9134 9.38875 17.8022 9.68277 17.9762C9.83881 18.0685 9.95736 18.1954 10.0453 18.3639C10.1358 18.5377 10.3334 18.6273 10.5238 18.5806C10.7142 18.534 10.8482 18.3634 10.8483 18.1674L10.8518 12.6408C10.8518 12.4545 10.932 12.2749 11.0716 12.1481C11.2127 12.02 11.3947 11.9597 11.5842 11.978C11.9205 12.0106 12.1839 12.3128 12.1839 12.666V16.3711V18.0717C12.1839 18.3067 12.3744 18.4973 12.6095 18.4973C12.8447 18.4973 13.0352 18.3068 13.0352 18.0717V16.371C13.0352 16.0162 13.3614 15.7051 13.7334 15.7051C14.1006 15.7051 14.3994 16.0038 14.3994 16.371C14.3994 16.3718 14.3995 16.3725 14.3995 16.3732V18.0717C14.3995 18.3067 14.59 18.4973 14.8251 18.4973C15.0603 18.4973 15.2508 18.3068 15.2508 18.0717V16.3864C15.251 16.3813 15.2516 16.3762 15.2516 16.371C15.2516 16.0038 15.5504 15.7051 15.9176 15.7051C16.2471 15.7051 16.5261 15.9466 16.5756 16.2704L16.5803 18.0717C16.5803 18.3067 16.7708 18.4973 17.0059 18.4973C17.241 18.4973 17.4316 18.3068 17.4316 18.0717V16.9958C17.469 16.6823 17.7445 16.438 18.0782 16.438H18.1504C18.5095 16.438 18.8017 16.7209 18.8017 17.0686V19.7022C18.8017 19.9373 18.9922 20.1279 19.2273 20.1279C19.4624 20.1279 19.653 19.9373 19.653 19.7022V17.4482C19.789 17.4456 19.9257 17.4271 20.0604 17.391C20.4964 17.2742 20.8607 16.9946 21.0864 16.6038C21.5522 15.7969 21.2748 14.7615 20.4679 14.2957C19.7882 13.9033 18.9466 14.0383 18.4197 14.5727L13.1147 11.5098C13.1162 11.5049 13.1175 11.4998 13.119 11.4948H19.2442ZM20.8794 10.2307C21.3417 10.2307 21.7177 10.6068 21.7177 11.0691C21.7177 11.5314 21.3417 11.9075 20.8794 11.9075C20.4171 11.9075 20.041 11.5314 20.041 11.0691C20.041 10.6068 20.4171 10.2307 20.8794 10.2307ZM19.2036 5.65327C19.3328 5.57867 19.4762 5.54061 19.6214 5.54061C19.6942 5.54061 19.7675 5.55018 19.8397 5.56955C20.056 5.6275 20.2369 5.76626 20.3488 5.9602C20.5799 6.36053 20.4423 6.87426 20.0419 7.10541C19.848 7.21739 19.6221 7.24713 19.4057 7.18918C19.1894 7.13124 19.0086 6.99247 18.8967 6.79853C18.6656 6.3982 18.8033 5.88447 19.2036 5.65327ZM7.22939 3.67233C7.03545 3.78431 6.80952 3.81404 6.59326 3.7561C6.37695 3.69816 6.1961 3.55939 6.08418 3.36545C5.97226 3.17152 5.94247 2.94558 6.00041 2.72927C6.05835 2.51302 6.19706 2.33222 6.391 2.22024C6.5202 2.14565 6.66355 2.10753 6.80884 2.10753C6.88168 2.10753 6.95497 2.1171 7.02718 2.13647C7.24344 2.19441 7.42429 2.33318 7.53621 2.52712C7.76742 2.9274 7.62978 3.44118 7.22939 3.67233ZM4.10319 6.79853C3.99126 6.99247 3.81041 7.13118 3.5941 7.18918C3.37796 7.24713 3.15197 7.21739 2.95792 7.10541C2.55764 6.87426 2.41995 6.36048 2.65104 5.9602C2.76302 5.76626 2.94382 5.62755 3.16013 5.56955C3.23234 5.55018 3.30563 5.54061 3.37847 5.54061C3.52376 5.54061 3.66711 5.57873 3.79631 5.65327C4.19664 5.88447 4.33434 6.3982 4.10319 6.79853ZM2.12049 11.9074C1.65825 11.9074 1.28216 11.5313 1.28216 11.069C1.28216 10.6067 1.65825 10.2307 2.12049 10.2307C2.58279 10.2307 2.95888 10.6067 2.95888 11.069C2.95888 11.5313 2.58285 11.9074 2.12049 11.9074ZM3.79631 16.4848C3.60232 16.5968 3.37643 16.6266 3.16013 16.5686C2.94382 16.5106 2.76296 16.3719 2.65104 16.1779C2.41995 15.7776 2.55753 15.2639 2.95792 15.0327C3.35825 14.8016 3.87204 14.9392 4.10319 15.3396C4.33434 15.7399 4.19664 16.2537 3.79631 16.4848ZM7.53627 19.6111C7.42435 19.805 7.24349 19.9437 7.02718 20.0017C6.81099 20.0597 6.58505 20.0299 6.39106 19.918C6.19706 19.806 6.05835 19.6252 6.00047 19.4089C5.94252 19.1926 5.97226 18.9666 6.08424 18.7727C6.19621 18.5788 6.37695 18.44 6.59326 18.3821C6.80974 18.3241 7.03551 18.3539 7.22945 18.4659C7.42338 18.5778 7.56215 18.7586 7.62004 18.975C7.67798 19.1912 7.64825 19.4171 7.53627 19.6111ZM8.0074 17.9995C8.00372 17.9959 8.00038 17.9919 7.9967 17.9883L8.06291 17.8736C8.04235 17.9149 8.02377 17.9569 8.0074 17.9995ZM9.99763 17.1801C9.44131 16.9143 8.79266 17.0261 8.34696 17.4767C8.2714 17.5531 8.20666 17.6356 8.15053 17.7218L9.99933 14.5196L9.99763 17.1801ZM10.6617 1.68964C10.6617 1.22734 11.0378 0.851247 11.5 0.851247C11.9623 0.851247 12.3383 1.22734 12.3383 1.68964C12.3383 2.15193 11.9623 2.52803 11.5 2.52803C11.0378 2.52803 10.6617 2.15193 10.6617 1.68964ZM12.2761 11.3268C12.0943 11.221 11.8881 11.1521 11.6661 11.1306C11.3379 11.0988 11.0097 11.1761 10.7315 11.345C10.6867 11.2427 10.6616 11.1299 10.6616 11.0112C10.6616 10.5489 11.0377 10.1728 11.4999 10.1728C11.9621 10.1728 12.3382 10.5489 12.3382 11.0112C12.3383 11.1229 12.3161 11.2293 12.2761 11.3268ZM18.8968 15.3396C19.1279 14.9393 19.6418 14.8016 20.042 15.0327C20.4424 15.2639 20.58 15.7777 20.3489 16.1779C20.2369 16.3719 20.0562 16.5106 19.8398 16.5686C19.7518 16.5922 19.6622 16.6005 19.5737 16.5951C19.4421 16.2111 19.1553 15.8972 18.7869 15.7266C18.7913 15.5945 18.8261 15.4618 18.8968 15.3396ZM13.035 15.0224V14.579L13.2411 14.936C13.1702 14.9601 13.1012 14.9887 13.035 15.0224ZM17.9938 15.3098C17.9681 15.4034 17.9518 15.4982 17.9428 15.5932C17.7169 15.6132 17.505 15.6821 17.3189 15.79C17.0891 15.2357 16.5431 14.8536 15.9174 14.8536C15.489 14.8536 15.1015 15.0321 14.8253 15.3185C14.6598 15.1468 14.4541 15.0143 14.2238 14.9354L13.0351 12.8765V12.6657C13.0351 12.5881 13.0294 12.5118 13.0187 12.4372L17.9938 15.3098Z" fill="#BAABAB"/>
</svg>
