<svg width="19" height="19" viewBox="0 0 19 19" fill="none" xmlns="http://www.w3.org/2000/svg">
<path d="M7.03 7.6108H18.43C18.5345 7.6108 18.62 7.51364 18.62 7.39489V5.88352C18.62 5.76477 18.5345 5.66761 18.43 5.66761H7.03C6.9255 5.66761 6.84 5.76477 6.84 5.88352V7.39489C6.84 7.51364 6.9255 7.6108 7.03 7.6108ZM6.84 13.1165C6.84 13.2352 6.9255 13.3324 7.03 13.3324H18.43C18.5345 13.3324 18.62 13.2352 18.62 13.1165V11.6051C18.62 11.4864 18.5345 11.3892 18.43 11.3892H7.03C6.9255 11.3892 6.84 11.4864 6.84 11.6051V13.1165ZM18.81 0H0.19C0.0855 0 0 0.0971591 0 0.215909V1.72727C0 1.84602 0.0855 1.94318 0.19 1.94318H18.81C18.9145 1.94318 19 1.84602 19 1.72727V0.215909C19 0.0971591 18.9145 0 18.81 0ZM18.81 17.0568H0.19C0.0855 17.0568 0 17.154 0 17.2727V18.7841C0 18.9028 0.0855 19 0.19 19H18.81C18.9145 19 19 18.9028 19 18.7841V17.2727C19 17.154 18.9145 17.0568 18.81 17.0568ZM0.08075 9.68622L3.79288 13.0085C3.93063 13.1327 4.13488 13.022 4.13488 12.8223V6.1777C4.13488 5.97798 3.933 5.86733 3.79288 5.99148L0.08075 9.31378C0.0557893 9.33583 0.0355913 9.36407 0.0216976 9.39634C0.00780379 9.42862 0.000581284 9.46407 0.000581284 9.5C0.000581284 9.53593 0.00780379 9.57138 0.0216976 9.60365C0.0355913 9.63593 0.0557893 9.66417 0.08075 9.68622Z" fill="#A59F9F"/>
</svg>
